<svg xmlns="http://www.w3.org/2000/svg" viewBox="0 0 64 64">
  <defs>
    <radialGradient id="g" cx="50%" cy="42%" r="70%">
      <stop offset="0" stop-color="#FFF3C4"/>
      <stop offset="0.55" stop-color="#FFD84D"/>
      <stop offset="1" stop-color="#F5A623"/>
    </radialGradient>
    <linearGradient id="b" x1="0" y1="0" x2="0" y2="1">
      <stop offset="0" stop-color="#FFE24D"/>
      <stop offset="1" stop-color="#F5A623"/>
    </linearGradient>
    <linearGradient id="m" x1="0" y1="0" x2="0" y2="1">
      <stop offset="0" stop-color="#FF5A5F"/>
      <stop offset="1" stop-color="#C62828"/>
    </linearGradient>
  </defs>
  <g transform="translate(2,2) scale(0.6)">
    <polygon points="50,2 58.3,19.1 74,8.4 72.6,27.4 91.6,26 80.9,41.7 98,50 80.9,58.3 91.6,74 72.6,72.6 74,91.6 58.3,80.9 50,98 41.7,80.9 26,91.6 27.4,72.6 8.4,74 19.1,58.3 2,50 19.1,41.7 8.4,26 27.4,27.4 26,8.4 41.7,19.1"
      fill="url(#g)" stroke="#1F2A6B" stroke-width="3" stroke-linejoin="round"/>
  </g>
  <circle cx="32" cy="32" r="19" fill="#FFFFFF" opacity="0.22"/>
  <ellipse cx="32" cy="18" rx="15" ry="6.5" fill="#FFFFFF" opacity="0.2"/>
  <text x="32" y="42" font-size="32" text-anchor="middle">🦸🏻‍♂️</text>
  <circle cx="32" cy="52" r="11" fill="url(#b)" stroke="#1F2A6B" stroke-width="1.6"/>
  <circle cx="32" cy="52" r="9.2" fill="none" stroke="#FFFFFF" stroke-width="1.2" opacity="0.85"/>
  <text x="32" y="58" font-size="16" text-anchor="middle" font-family="Impact,'Arial Black',sans-serif"
        fill="url(#m)" stroke="#1F2A6B" stroke-width="0.8" paint-order="stroke"
        transform="rotate(-5 32 52)">M</text>
</svg>
